# xmcd CD database file
#
# Track frame offsets:
#	150
#	11400
#	26190
#	39792
#	52451
#	61575
#	72084
#	84898
#	95897
#	107397
#	119950
#	132434
#	144556
#	157021
#	169400
#	184581
#	197683
#
# Disc length: 2907 seconds
#
# Revision: 0
# Processed by: cddbd v1.5.2PL0 Copyright (c) Steve Scherf et al.
# Submitted via: CDex 1.51
#
DISCID=f00b5911
DTITLE=B.B. KING - The Essential Collection cd-1
DYEAR=2007
DGENRE=Blues
TTITLE0=B.B. Blues
TTITLE1=B.B, Boogie
TTITLE2=Blind Love
TTITLE3=Boogie Woogie Woman
TTITLE4=Don't You Want A Man Like Me
TTITLE5=Fine Lookind Woman
TTITLE6=Got The Blues
TTITLE7=Gotta' Find My Baby
TTITLE8=Hard Working Woman
TTITLE9=Highway Bound
TTITLE10=I Gotta' Find My Baby
TTITLE11=Miss Martha King
TTITLE12=Mistreated Woman
TTITLE13=My Baby Is Gone
TTITLE14=My Own Fault Darlin'
TTITLE15=Neighborhood Affair
TTITLE16=Please Hurry Home
EXTD=YEAR: 2007
EXTT0=
EXTT1=
EXTT2=
EXTT3=
EXTT4=
EXTT5=
EXTT6=
EXTT7=
EXTT8=
EXTT9=
EXTT10=
EXTT11=
EXTT12=
EXTT13=
EXTT14=
EXTT15=
EXTT16=
PLAYORDER=
